<?xml version="1.0" encoding="utf-8"?>
<!-- Generator: Adobe Illustrator 27.5.0, SVG Export Plug-In . SVG Version: 6.00 Build 0)  -->
<svg version="1.1" xmlns="http://www.w3.org/2000/svg" xmlns:xlink="http://www.w3.org/1999/xlink" x="0px" y="0px"
	 viewBox="0 0 500 500" style="enable-background:new 0 0 500 500;" xml:space="preserve">
<g id="BACKGROUND">
	<rect id="XMLID_1010_" style="opacity:0.62;fill:#36A9E1;" width="500" height="500"/>
	<rect id="XMLID_291_" y="420.774" style="fill:#36A9E1;" width="500" height="79.226"/>
	<g id="XMLID_67_" style="opacity:0.66;">
		<path id="XMLID_63_" style="fill:#36A9E1;" d="M31,43c0,1.473-1.194,2.667-2.667,2.667c-1.473,0-2.667-1.194-2.667-2.667
			s1.194-2.667,2.667-2.667C29.806,40.333,31,41.527,31,43z"/>
		<path id="XMLID_68_" style="fill:#36A9E1;" d="M54.767,119.872c0,1.473-1.194,2.667-2.667,2.667c-1.473,0-2.667-1.194-2.667-2.667
			c0-1.473,1.194-2.667,2.667-2.667C53.573,117.206,54.767,118.4,54.767,119.872z"/>
		<path id="XMLID_1051_" style="fill:#36A9E1;" d="M441.667,24.367c0,1.473-1.194,2.667-2.667,2.667
			c-1.473,0-2.667-1.194-2.667-2.667c0-1.473,1.194-2.667,2.667-2.667C440.473,21.7,441.667,22.894,441.667,24.367z"/>
		<circle id="XMLID_1105_" style="fill:#36A9E1;" cx="480" cy="110.587" r="2.667"/>
		<path id="XMLID_1113_" style="fill:#36A9E1;" d="M439,200.212c0,1.473-1.194,2.667-2.667,2.667c-1.473,0-2.667-1.194-2.667-2.667
			c0-1.473,1.194-2.667,2.667-2.667C437.806,197.545,439,198.739,439,200.212z"/>
		<path id="XMLID_1116_" style="fill:#36A9E1;" d="M316.769,9.736c0,1.473-1.194,2.667-2.667,2.667
			c-1.473,0-2.667-1.194-2.667-2.667c0-1.473,1.194-2.667,2.667-2.667C315.575,7.069,316.769,8.263,316.769,9.736z"/>
		<path id="XMLID_1119_" style="fill:#36A9E1;" d="M236.408,27.034c0,1.473-1.194,2.667-2.667,2.667
			c-1.473,0-2.667-1.194-2.667-2.667c0-1.473,1.194-2.667,2.667-2.667C235.214,24.367,236.408,25.561,236.408,27.034z"/>
		<circle id="XMLID_1122_" style="fill:#36A9E1;" cx="23" cy="214.275" r="2.667"/>
		<path id="XMLID_1125_" style="fill:#36A9E1;" d="M57.434,294.112c0,1.473-1.194,2.667-2.667,2.667
			c-1.473,0-2.667-1.194-2.667-2.667c0-1.473,1.194-2.667,2.667-2.667C56.24,291.445,57.434,292.639,57.434,294.112z"/>
		<path id="XMLID_83_" style="fill:#36A9E1;" d="M269.873,378.49c0,1.473-1.194,2.667-2.667,2.667c-1.473,0-2.667-1.194-2.667-2.667
			c0-1.473,1.194-2.667,2.667-2.667C268.679,375.823,269.873,377.017,269.873,378.49z"/>
		<path id="XMLID_1104_" style="fill:#36A9E1;" d="M110.618,334.417c0,1.473-1.194,2.667-2.667,2.667
			c-1.473,0-2.667-1.194-2.667-2.667c0-1.473,1.194-2.667,2.667-2.667C109.424,331.75,110.618,332.944,110.618,334.417z"/>
		<path id="XMLID_1128_" style="fill:#36A9E1;" d="M28.333,378.49c0,1.473-1.194,2.667-2.667,2.667
			c-1.473,0-2.667-1.194-2.667-2.667c0-1.473,1.194-2.667,2.667-2.667C27.139,375.823,28.333,377.017,28.333,378.49z"/>
		<path id="XMLID_1131_" style="fill:#36A9E1;" d="M433.667,357.004c0,1.473-1.194,2.667-2.667,2.667
			c-1.473,0-2.667-1.194-2.667-2.667c0-1.473,1.194-2.667,2.667-2.667C432.473,354.338,433.667,355.532,433.667,357.004z"/>
		<path id="XMLID_1134_" style="fill:#36A9E1;" d="M470.333,294.758c0,1.473-1.194,2.667-2.667,2.667
			c-1.473,0-2.667-1.194-2.667-2.667c0-1.473,1.194-2.667,2.667-2.667C469.139,292.091,470.333,293.285,470.333,294.758z"/>
		<path id="XMLID_1053_" style="fill:#36A9E1;" d="M322.367,321.726c0,1.473-1.194,2.667-2.667,2.667
			c-1.473,0-2.667-1.194-2.667-2.667c0-1.473,1.194-2.667,2.667-2.667C321.173,319.059,322.367,320.253,322.367,321.726z"/>
		<circle id="XMLID_84_" style="fill:#36A9E1;" cx="86.784" cy="31.884" r="2.667"/>
	</g>
</g>
<g id="OBJECTS">
	<g id="XMLID_62_">
		<g id="XMLID_330_">
			<g id="XMLID_334_">
				<path id="XMLID_337_" style="fill:none;stroke:#3C3C3B;stroke-width:0.6;stroke-miterlimit:10;" d="M369.727,101.39
					l0.188-34.324c0,0-1.154-4.171-4.211-3.96c-3.056,0.21-0.26,5.475,4.115,4.017"/>
				<path id="XMLID_335_" style="fill:none;stroke:#3C3C3B;stroke-width:0.6;stroke-miterlimit:10;" d="M370.08,66.839
					c0,0-0.429-5.396,2.625-6.711c3.054-1.315,2.882,6.627-2.545,7.257"/>
			</g>
			<g id="XMLID_331_">
				<path id="XMLID_333_" style="fill:none;stroke:#3C3C3B;stroke-width:0.6;stroke-miterlimit:10;" d="M369.804,75.54
					c0,0-1.154-4.171-4.211-3.96c-3.056,0.21-0.26,5.475,4.115,4.017"/>
				<path id="XMLID_332_" style="fill:none;stroke:#3C3C3B;stroke-width:0.6;stroke-miterlimit:10;" d="M369.969,75.312
					c0,0-0.429-5.396,2.625-6.711c3.054-1.315,2.882,6.627-2.545,7.257"/>
			</g>
		</g>
		<g id="XMLID_313_">
			<path id="XMLID_325_" style="fill:#FFFFFF;" d="M393.747,103.097c0,0-9.504-2.538-8.063-15.863
				C385.684,87.234,394.818,91.649,393.747,103.097z"/>
			<path id="XMLID_324_" style="fill:#FFFFFF;" d="M393.822,103.098c0,0,9.537-2.407,8.281-15.751
				C402.103,87.347,392.909,91.635,393.822,103.098z"/>
			<path id="XMLID_323_" style="fill:#FFFFFF;" d="M393.728,97.018c0,0,7.211-6.691-0.299-17.793
				C393.429,79.226,387.423,87.402,393.728,97.018z"/>
		</g>
		<g id="XMLID_309_">
			<path id="XMLID_312_" style="fill:#FFFFFF;" d="M329.495,103.097c0,0-10.329-2.758-8.764-17.242
				C320.731,85.855,330.66,90.654,329.495,103.097z"/>
			<path id="XMLID_311_" style="fill:#FFFFFF;" d="M329.577,103.098c0,0,10.366-2.616,9.001-17.12
				C338.578,85.978,328.584,90.639,329.577,103.098z"/>
			<path id="XMLID_310_" style="fill:#FFFFFF;" d="M329.475,96.49c0,0,7.837-7.272-0.325-19.339
				C329.15,77.151,322.622,86.038,329.475,96.49z"/>
		</g>
		<g id="XMLID_270_">
			<g id="XMLID_274_">
				<path id="XMLID_276_" style="fill:none;stroke:#3C3C3B;stroke-width:0.6;stroke-miterlimit:10;" d="M383.716,101.405
					l0.258-47.167c0,0-1.586-5.731-5.786-5.442c-4.2,0.289-0.358,7.523,5.654,5.52"/>
				<path id="XMLID_275_" style="fill:none;stroke:#3C3C3B;stroke-width:0.6;stroke-miterlimit:10;" d="M384.201,53.925
					c0,0-0.589-7.415,3.608-9.222c4.197-1.806,3.96,9.107-3.498,9.972"/>
			</g>
			<g id="XMLID_271_">
				<path id="XMLID_273_" style="fill:none;stroke:#3C3C3B;stroke-width:0.6;stroke-miterlimit:10;" d="M383.821,65.882
					c0,0-1.586-5.731-5.786-5.442c-4.2,0.289-0.358,7.523,5.654,5.52"/>
				<path id="XMLID_272_" style="fill:none;stroke:#3C3C3B;stroke-width:0.6;stroke-miterlimit:10;" d="M384.048,65.57
					c0,0-0.589-7.415,3.607-9.222c4.197-1.806,3.96,9.107-3.497,9.972"/>
			</g>
		</g>
		<g id="XMLID_292_">
			<ellipse id="XMLID_19_" style="opacity:0.62;fill:#36A9E1;" cx="179.382" cy="466.178" rx="60.615" ry="3.467"/>
			<ellipse id="XMLID_299_" style="opacity:0.62;fill:#36A9E1;" cx="344.188" cy="466.178" rx="60.615" ry="3.467"/>
			<g id="XMLID_21_">
				<path id="XMLID_51_" style="fill:#FFFFFF;" d="M99.341,461.236c0,0-5.487-1.465-4.656-9.16
					C94.685,452.076,99.959,454.625,99.341,461.236z"/>
				<path id="XMLID_24_" style="fill:#FFFFFF;" d="M99.384,461.236c0,0,5.507-1.39,4.781-9.095
					C104.166,452.141,98.857,454.617,99.384,461.236z"/>
				<path id="XMLID_22_" style="fill:#FFFFFF;" d="M99.33,457.725c0,0,4.163-3.863-0.173-10.274
					C99.157,447.452,95.689,452.173,99.33,457.725z"/>
			</g>
			<g id="XMLID_1054_">
				<path id="XMLID_1080_" style="fill:#FFFFFF;" d="M149.526,487.435c0,0-4.422-1.181-3.752-7.381
					C145.774,480.054,150.024,482.108,149.526,487.435z"/>
				<path id="XMLID_1072_" style="fill:#FFFFFF;" d="M149.561,487.435c0,0,4.438-1.12,3.853-7.329
					C153.414,480.106,149.136,482.102,149.561,487.435z"/>
				<path id="XMLID_1055_" style="fill:#FFFFFF;" d="M149.517,484.606c0,0,3.355-3.113-0.139-8.279
					C149.378,476.327,146.583,480.132,149.517,484.606z"/>
			</g>
			<g id="XMLID_1084_">
				<path id="XMLID_1096_" style="fill:#FFFFFF;" d="M169.221,451.634c0,0-4.422-1.181-3.752-7.382
					C165.469,444.253,169.719,446.307,169.221,451.634z"/>
				<path id="XMLID_1094_" style="fill:#FFFFFF;" d="M169.256,451.634c0,0,4.438-1.12,3.853-7.329
					C173.109,444.305,168.83,446.301,169.256,451.634z"/>
				<path id="XMLID_1085_" style="fill:#FFFFFF;" d="M169.212,448.806c0,0,3.355-3.113-0.139-8.279
					C169.073,440.526,166.278,444.331,169.212,448.806z"/>
			</g>
			<g id="XMLID_1097_">
				<path id="XMLID_1103_" style="fill:#FFFFFF;" d="M356.567,483.478c0,0-4.422-1.181-3.752-7.381
					C352.815,476.097,357.065,478.151,356.567,483.478z"/>
				<path id="XMLID_1099_" style="fill:#FFFFFF;" d="M356.602,483.478c0,0,4.438-1.12,3.853-7.329
					C360.455,476.149,356.177,478.145,356.602,483.478z"/>
				<path id="XMLID_1098_" style="fill:#FFFFFF;" d="M356.558,480.649c0,0,3.355-3.113-0.139-8.279
					C356.419,472.37,353.624,476.175,356.558,480.649z"/>
			</g>
			<g id="XMLID_1030_">
				<path id="XMLID_1050_" style="fill:#FFFFFF;" d="M263.664,460.832c0,0-5.166-1.38-4.383-8.624
					C259.28,452.209,264.246,454.608,263.664,460.832z"/>
				<path id="XMLID_1049_" style="fill:#FFFFFF;" d="M263.705,460.832c0,0,5.185-1.308,4.502-8.563
					C268.206,452.27,263.208,454.601,263.705,460.832z"/>
				<path id="XMLID_1048_" style="fill:#FFFFFF;" d="M263.654,457.527c0,0,3.92-3.637-0.163-9.672
					C263.491,447.855,260.226,452.3,263.654,457.527z"/>
			</g>
			<g id="XMLID_53_">
				<path id="XMLID_269_" style="fill:#FFFFFF;" d="M414.421,463.14c0,0-5.228-1.396-4.436-8.727
					C409.985,454.413,415.01,456.842,414.421,463.14z"/>
				<path id="XMLID_57_" style="fill:#FFFFFF;" d="M414.462,463.14c0,0,5.247-1.324,4.555-8.665
					C419.017,454.475,413.959,456.835,414.462,463.14z"/>
				<path id="XMLID_54_" style="fill:#FFFFFF;" d="M414.41,459.796c0,0,3.967-3.681-0.164-9.788
					C414.246,450.008,410.942,454.506,414.41,459.796z"/>
			</g>
			<g id="XMLID_1024_">
				<path id="XMLID_4_" style="fill:#FADD74;" d="M399.57,302.072H99.822c-5.707,0-10.333-4.626-10.333-10.333V111.342
					c0-5.707,4.626-10.333,10.333-10.333H399.57c5.707,0,10.333,4.626,10.333,10.333v180.398
					C409.903,297.446,405.277,302.072,399.57,302.072z"/>
				<path id="XMLID_17_" style="fill:#FFFFFF;" d="M196.294,302.072H95.406c-3.268,0-5.917-2.649-5.917-5.917V119.872h106.805
					V302.072z"/>
				<path id="XMLID_28_" style="fill:#FFFFFF;" d="M400.018,302.072h-96.919v-182.2h106.805v172.314
					C409.903,297.646,405.477,302.072,400.018,302.072z"/>
				<path id="XMLID_6_" style="fill:#34525C;" d="M89.489,119.872h320.414v-6.744c0,0,0.264-5.511-3.544-8.81
					c-3.807-3.299-7.203-3.281-7.988-3.296c-0.785-0.015-296.762-0.015-296.762-0.015s-4.303-0.398-8.517,3.499
					c-4.274,3.953-3.603,10.087-3.603,10.087V119.872z"/>
				<circle id="XMLID_7_" style="fill:#E6332A;" cx="107.768" cy="110.435" r="3.226"/>
				<circle id="XMLID_9_" style="fill:#74C8D6;" cx="126.242" cy="110.435" r="3.226"/>
				<circle id="XMLID_10_" style="fill:#FADD74;" cx="144.716" cy="110.435" r="3.226"/>
				<path id="XMLID_8_" style="fill:#FFFFFF;" d="M373.531,115.669H161.832c-1.139,0-2.063-0.923-2.063-2.063v-6.041
					c0-1.139,0.923-2.063,2.063-2.063h211.699c1.139,0,2.063,0.923,2.063,2.063v6.041
					C375.594,114.746,374.67,115.669,373.531,115.669z"/>
				<g id="XMLID_23_">
					<path id="XMLID_25_" style="fill:#DADADA;" d="M182.057,277.771h-76.098c-1.994,0-3.625-1.631-3.625-3.625V227.28
						c0-1.994,1.631-3.625,3.625-3.625h76.098c1.994,0,3.625,1.631,3.625,3.625v46.865
						C185.682,276.139,184.051,277.771,182.057,277.771z"/>
					<rect id="XMLID_20_" x="107.951" y="250.713" style="fill:#E6332A;" width="44.235" height="5.865"/>
					<rect id="XMLID_42_" x="107.951" y="268.454" style="fill:#FADD74;" width="68.415" height="5.865"/>
					<rect id="XMLID_39_" x="107.951" y="259.834" style="fill:#FFFFFF;" width="38.288" height="5.865"/>
					<rect id="XMLID_26_" x="107.561" y="228.641" style="fill:#00DDFE;" width="21.055" height="18.927"/>
					<rect id="XMLID_40_" x="132.651" y="228.641" style="fill:#FADD74;" width="21.055" height="18.927"/>
					<rect id="XMLID_45_" x="157.742" y="228.641" style="fill:#34525C;" width="21.055" height="18.927"/>
				</g>
				<g id="XMLID_47_">
					<path id="XMLID_1006_" style="fill:#DADADA;" d="M394.676,184.725h-76.098c-1.994,0-3.625-1.631-3.625-3.625v-46.865
						c0-1.994,1.631-3.625,3.625-3.625h76.098c1.994,0,3.625,1.631,3.625,3.625V181.1
						C398.301,183.093,396.67,184.725,394.676,184.725z"/>
					<rect id="XMLID_1005_" x="320.57" y="157.667" style="fill:#E6332A;" width="44.235" height="5.865"/>
					<rect id="XMLID_999_" x="320.57" y="175.408" style="fill:#FADD74;" width="68.415" height="5.865"/>
					<rect id="XMLID_955_" x="320.57" y="166.788" style="fill:#FFFFFF;" width="38.288" height="5.865"/>
					<rect id="XMLID_826_" x="320.179" y="135.594" style="fill:#00DDFE;" width="21.055" height="18.927"/>
					<rect id="XMLID_823_" x="345.27" y="135.594" style="fill:#FADD74;" width="21.055" height="18.927"/>
					<rect id="XMLID_70_" x="370.361" y="135.594" style="fill:#34525C;" width="21.055" height="18.927"/>
				</g>
				<g id="XMLID_78_">
					<g id="XMLID_115_">
						<polygon id="XMLID_101_" style="fill:#FFE7C5;" points="214.476,281.794 226.062,274.327 238.048,245.945 242.784,247.129 
							232.637,277.664 219.507,292.089 						"/>
						<g id="XMLID_30_">
							<path id="XMLID_11_" style="fill:#FFFFFF;" d="M270.14,246.519l-74.857-9.393c-1.978-0.248-3.394-2.07-3.145-4.048
								l11.729-93.478c0.248-1.978,2.07-3.394,4.048-3.146l74.857,9.393c1.978,0.248,3.394,2.07,3.145,4.048l-11.729,93.478
								C273.94,245.351,272.118,246.767,270.14,246.519z"/>
							
								<rect id="XMLID_34_" x="205.545" y="183.021" transform="matrix(0.9915 0.13 -0.13 0.9915 26.2061 -29.5876)" style="fill:#DADADA;" width="68.415" height="5.865"/>
							
								<rect id="XMLID_35_" x="204.28" y="191.502" transform="matrix(0.9915 0.13 -0.13 0.9915 27.146 -27.0261)" style="fill:#DADADA;" width="32.644" height="5.865"/>
							
								<rect id="XMLID_37_" x="202.712" y="204.633" transform="matrix(0.9915 0.13 -0.13 0.9915 28.9918 -29.0362)" style="fill:#FADD74;" width="68.415" height="5.865"/>
							
								<rect id="XMLID_44_" x="201.295" y="215.44" transform="matrix(0.9915 0.13 -0.13 0.9915 30.3842 -28.76)" style="fill:#DADADA;" width="68.415" height="5.865"/>
							
								<rect id="XMLID_55_" x="199.985" y="224.607" transform="matrix(0.9915 0.13 -0.13 0.9915 31.4574 -26.8729)" style="fill:#DADADA;" width="43.2" height="5.865"/>
							
								<rect id="XMLID_29_" x="212.216" y="165.782" transform="matrix(0.9915 0.13 -0.13 0.9915 23.8872 -26.776)" style="fill:#E6332A;" width="9.677" height="7.624"/>
							
								<rect id="XMLID_32_" x="228.903" y="161.712" transform="matrix(0.9915 0.13 -0.13 0.9915 23.9047 -28.9532)" style="fill:#E6332A;" width="9.677" height="13.856"/>
							
								<rect id="XMLID_33_" x="245.798" y="154.454" transform="matrix(0.9915 0.13 -0.13 0.9915 23.7177 -31.171)" style="fill:#E6332A;" width="9.677" height="23.288"/>
							
								<rect id="XMLID_48_" x="262.368" y="152.184" transform="matrix(0.9915 0.13 -0.13 0.9915 23.8507 -33.3254)" style="fill:#E6332A;" width="9.677" height="27.711"/>
						</g>
						<path id="XMLID_114_" style="fill:#FFE7C5;" d="M238.048,245.945c0,0-3.809-6.583-2.63-7.754
							c0.695-0.69,1.474,0.523,2.186,2.066c0.658,1.426,1.986,2.428,3.545,2.624l4.154,0.521c0,0-1.041,2.382-2.52,3.726
							C241.305,248.473,238.048,245.945,238.048,245.945z"/>
					</g>
					<polygon id="XMLID_81_" style="fill:#FFE7C5;" points="155.733,325.544 143.779,332.404 130.346,360.131 125.678,358.706 
						137.383,328.733 151.239,315.004 					"/>
					<g id="XMLID_120_">
						<polygon id="XMLID_125_" style="fill:#5555C7;" points="165.449,356.107 166.907,315.182 207.809,306.031 215.769,362.802 
							197.295,359.655 						"/>
						<path id="XMLID_121_" style="fill:#5555C7;" d="M207.809,306.031l-40.243,11.825l-16.994,16.812l-6.663-15.248l18.199-21.735
							c0.861-0.861,13.327-3.22,13.327-3.22c6.439,1.654,13.273,0.632,18.946-2.834l5.992,0.445l13.246-12.35l1.377-1.51
							l9.864,11.134L207.809,306.031z"/>
					</g>
					<g id="XMLID_91_">
						<path id="XMLID_100_" style="fill:#FFE7C5;" d="M178.064,279.726l1.55,9.128c0.395,2.329-0.935,4.605-3.158,5.405l-0.52,0.187
							c0,0,10.192,7.504,10.802,7.282c0.61-0.222,2.503-1.314,2.503-1.314l-8.484-21.95l-0.51-1.662l-1.32,1.075L178.064,279.726z"
							/>
						<polygon id="XMLID_161_" style="fill:#FFE7C5;" points="167.817,265.477 170.603,270.798 173.755,271.971 173.755,263.295 
													"/>
						<g id="XMLID_167_">
							<path id="XMLID_370_" style="fill:#FFE7C5;" d="M194.894,263.651l11.71,22.324l-22.835,5.853l-6.391-13.695
								c0,0-1.185,2.254-4.082,2.138c-3.24-0.13-6.516-8.748-6.088-10.641c0.429-1.893,4.23,1.264,4.23,1.264
								s-1.119-11.677,1.658-13.603c2.777-1.927,16.139-6.174,16.139-6.174L194.894,263.651z"/>
						</g>
						<g id="XMLID_166_">
							<path id="XMLID_369_" style="fill:#350C0C;" d="M199.457,269.721l7.811,9.757c0.745,0.93,0.87,1.283,0.876,1.651
								l0.328,22.742c0.007,0.487-0.2,0.952-0.567,1.272l-3.089,2.695c-2.916,2.544-7.071,3.1-10.55,1.405
								c-3.125-1.523-6.577-3.336-7.945-5.468c-4.143-6.455-4.889-12.781-4.889-12.781l-4.022-12.756
								c-0.022-0.069-0.048-0.137-0.079-0.202l-4.598-9.241c-0.406-0.871,1.354,0.343,2.251,0l0.952-0.097
								c0.811-0.31,0.326-0.787,0.693,0l4.178,8.951c0.256,0.548,0.791,0.913,1.394,0.952l6.327,0.407
								c0.284,0.018,0.568-0.037,0.824-0.16l6.181-2.974c0,0,1.314-0.548,0.98-5.002
								C196.393,269.253,198.445,268.456,199.457,269.721z"/>
						</g>
						<g id="XMLID_97_">
							<g id="XMLID_98_">
								<g id="XMLID_99_">
									<path id="XMLID_345_" style="fill:#FFFFFF;" d="M193.84,281.554c0,0,1.245-1.284,2.517-1.652
										c1.272-0.368,2.64-0.254,3.348,1.278c0.707,1.532-0.534,3.163-2.175,4.68c-0.967,0.894-4.604,2.621-6.955,2.203
										c-2.351-0.418-3.659-0.909-4.507-2.182c-0.848-1.273-0.135-3.01,0.857-3.725c0.992-0.715,2.286-0.491,2.936-0.217
										C190.511,282.214,192.098,282.879,193.84,281.554z"/>
								</g>
							</g>
						</g>
						<g id="XMLID_96_">
							<path id="XMLID_344_" style="fill:#1D1D1B;" d="M183.861,267.028c0.391,1.074,1.077,1.81,1.531,1.645
								c0.454-0.165,0.505-1.17,0.113-2.244c-0.391-1.074-1.077-1.81-1.531-1.645C183.52,264.95,183.469,265.954,183.861,267.028z"
								/>
						</g>
						<g id="XMLID_95_">
							<path id="XMLID_93_" style="fill:#1D1D1B;" d="M190.309,263.988c0.391,1.074,1.077,1.81,1.531,1.645
								c0.454-0.166,0.505-1.17,0.113-2.244c-0.392-1.074-1.077-1.81-1.531-1.645C189.968,261.91,189.918,262.914,190.309,263.988z"
								/>
						</g>
						<g id="XMLID_94_">
							<path id="XMLID_341_" style="fill:#1D1D1B;" d="M186.108,274.571c-2.555,0.977-5.651-1.121-7.049-4.776
								c-1.398-3.655-0.493-7.285,2.062-8.262c2.554-0.977,5.651,1.121,7.049,4.777
								C189.568,269.965,188.662,273.594,186.108,274.571z M181.653,262.925c-1.715,0.656-2.266,3.558-1.202,6.338
								c1.063,2.779,3.41,4.573,5.125,3.917c1.715-0.656,2.265-3.558,1.202-6.337C185.715,264.063,183.368,262.269,181.653,262.925z
								"/>
						</g>
						<g id="XMLID_184_">
							<path id="XMLID_214_" style="fill:#1D1D1B;" d="M194.939,271.193c-2.555,0.977-5.651-1.12-7.049-4.776
								c-1.398-3.655-0.493-7.285,2.062-8.262c2.554-0.977,5.651,1.121,7.049,4.777
								C198.399,266.587,197.493,270.216,194.939,271.193z M190.484,259.547c-1.715,0.656-2.266,3.558-1.202,6.338
								c1.063,2.779,3.41,4.573,5.125,3.917c1.715-0.656,2.265-3.558,1.202-6.337C194.546,260.685,192.199,258.891,190.484,259.547z
								"/>
						</g>
						<g id="XMLID_105_">
							<polygon id="XMLID_77_" style="fill:#F95353;" points="186.642,263.19 198.131,272.052 190.895,274.052 							"/>
						</g>
						<g id="XMLID_185_">
							<polygon id="XMLID_92_" style="fill:#1D1D1B;" points="179.382,268.965 169.963,270.09 169.714,268.621 179.134,267.495 
															"/>
						</g>
						<path id="XMLID_160_" style="fill:#350C0C;" d="M175.555,262.722c0,0,0.732-8.394,12.064-7.221
							c11.331,1.173,13.566-9.847,7.615-13.721c-5.95-3.873-9.786,2.811-9.786,2.811s-23.352,6.469-17.63,20.887L175.555,262.722z"
							/>
					</g>
					<path id="XMLID_664_" style="fill:#3434A4;" d="M211.332,366.028c2.1,0.083,4.046-1.338,4.397-3.41
						c0.344-2.024-0.187-4.574-3.682-6.68c-6.991-4.211-17.985-3.655-24.912-2.309c-6.528,1.269-11.358-5.96-17.284-4.79
						c-3.593,0.709-6.229,6.199-2.975,10.158c3.254,3.959,7.773,5.582,7.773,5.582L211.332,366.028z"/>
					<g id="XMLID_907_">
						<g id="XMLID_518_">
							<polygon id="XMLID_520_" style="fill:#FFE7C5;" points="204.58,443.43 203.502,450.151 196.415,449.911 197.759,441.823 
															"/>
							<polygon id="XMLID_519_" style="fill:#F9B233;" points="203.953,450.167 205.201,446.08 196.44,446.102 195.757,449.888 
															"/>
						</g>
						<path id="XMLID_513_" style="fill:#1D1D1B;" d="M204.915,450.179l5.28,8.176l18.719,4.604c1.704,0.419,1.415,2.924-0.34,2.944
							l-24.086,0.275l-6.849-3.687l-1.828,1.464l-5.513-2.119l4.909-12.339L204.915,450.179z"/>
					</g>
					<g id="XMLID_103_">
						<g id="XMLID_106_">
							<polygon id="XMLID_111_" style="fill:#FFE7C5;" points="146.631,419.122 140.585,422.25 136.565,416.408 143.868,412.682 
															"/>
							<polygon id="XMLID_109_" style="fill:#F9B233;" points="140.84,422.621 144.868,421.196 139.643,414.164 136.192,415.866 
															"/>
						</g>
						<path id="XMLID_104_" style="fill:#1D1D1B;" d="M141.403,423.403l-3.437,9.106l7.425,17.79
							c0.676,1.619-1.51,2.876-2.569,1.477l-14.538-19.206l-1.107-7.699l-2.264-0.6l-1.573-5.693l12.84-3.387L141.403,423.403z"/>
					</g>
					<path id="XMLID_382_" style="fill:#FFE7C5;" d="M212.817,359.759l-0.819-3.815c0,0-5.808-4.057-18.07-3.183
						c0,0-5.389,0.603-6.116,0.739c-0.726,0.135-2.36,0.403-3.387,0.213c-1.028-0.19-2.642-0.672-3.292-0.967l-3.174-1.61
						l-0.917,5.868L212.817,359.759z"/>
					<polygon id="XMLID_102_" style="fill:#1D1D1B;" points="212.817,359.759 206.604,444.312 196.904,444.312 194.929,375.429 
						179.701,401.625 145.561,421.151 141.189,413.061 172.673,391.948 177.041,357.004 					"/>
					<g id="XMLID_112_">
						<polygon id="XMLID_113_" style="fill:#B2B2B2;" points="137.007,433.126 133.108,431.792 133.665,428.006 138.031,429.331 
							137.895,429.78 134.05,428.613 133.63,431.473 137.159,432.682 						"/>
					</g>
					<path id="XMLID_116_" style="fill:#FFE7C5;" d="M128.165,365.354c0,0-5.085,12.049-5.951,12.862
						c-0.866,0.812-1.869-0.247-0.887-2.27c0.982-2.022,3.437-8.404,3.437-8.404s-5.199,9.767-5.976,9.936
						c-0.777,0.169-1.513-0.663-0.663-1.923c0.849-1.259,3.966-7.983,3.966-7.983s-3.69,5.286-4.793,6.188
						c-1.103,0.902-0.904-1.119-0.026-2.236c0.878-1.117,3.939-5.643,3.939-5.643s-3.917,3.098-4.722,3.159
						c-0.804,0.06-0.729-0.609-0.317-1.087c0.412-0.478,4.937-3.954,4.937-3.954s1.167-1.198,5.247-5.99
						c2.276-2.673,4.49,0.826,4.456,1.389c-0.035,0.563-0.364,10.574-0.96,11.98c-0.596,1.406-2.281,0.163-1.92-2.3
						C128.292,366.617,128.885,365.027,128.165,365.354z"/>
				</g>
				<g id="XMLID_41_">
					<g id="XMLID_350_">
						<g id="XMLID_352_">
							<polygon id="XMLID_354_" style="fill:#FFE7C5;" points="365.45,443.43 364.371,450.151 357.285,449.911 358.629,441.823 
															"/>
							<polygon id="XMLID_353_" style="fill:#F9B233;" points="364.822,450.167 366.071,446.08 357.31,446.102 356.627,449.888 
															"/>
						</g>
						<path id="XMLID_351_" style="fill:#1D1D1B;" d="M365.785,450.179l2.233,9.509l9.237,3.271c1.704,0.419,1.415,2.924-0.34,2.944
							l-11.558,0.275l-6.849-3.687l-1.828,1.464l-5.513-2.119l4.909-12.339L365.785,450.179z"/>
					</g>
					<g id="XMLID_511_">
						<g id="XMLID_516_">
							<polygon id="XMLID_919_" style="fill:#FFE7C5;" points="332.561,442.412 331.97,449.194 338.902,450.687 339.568,442.516 
															"/>
							<polygon id="XMLID_909_" style="fill:#F9B233;" points="331.529,449.099 331.314,444.832 339.806,446.987 339.546,450.825 
															"/>
						</g>
						<path id="XMLID_514_" style="fill:#1D1D1B;" d="M330.593,448.876l-2.576,7.81l-12.413,4.873
							c-1.754-0.009-2.084,2.491-0.387,2.938h11.894l7.541-1.908l1.416,1.865l5.863-0.712l-1.756-13.163L330.593,448.876z"/>
					</g>
					<path id="XMLID_69_" style="fill:#FFE7C5;" d="M355.966,270.149l-0.311,3.299c-0.3,3.183-2.496,5.868-5.556,6.796l-1.392,0.422
						h24.482l-3.173-0.07c-3.229-1.293-5.228-4.551-4.916-8.016l0.354-3.937L355.966,270.149z"/>
					<path id="XMLID_165_" style="fill:#1D1D1B;" d="M374.112,358.604l-6.213,84.691h-9.7l-1.975-68.883l-9.173,28.691
						l-7.038,40.192h-10.85l5.865-46.057l3.308-40.884l0,0c10.907-3.384,22.642-2.94,33.263,1.257L374.112,358.604z"/>
					<path id="XMLID_61_" d="M340.302,238.881c0,0,3.231,22.87,10.709,29.468s20.05,0.129,21.168-4.774
						c1.118-4.903-2.598-27.514-2.598-27.514L340.302,238.881z"/>
					<g id="XMLID_60_">
						<path id="XMLID_1078_" style="fill:#FFE7C5;" d="M372.405,258.396c0.26-0.087,0.517-0.191,0.771-0.315
							c3.072-1.501,2.384-4.4,0.883-7.472c-0.981-2.006-0.942-4.053-3.013-4.253L372.405,258.396z"/>
						<path id="XMLID_1076_" style="fill:#1D1D1B;" d="M345.462,246.137c-3.645-1.113-5.866-4.853-5.053-8.577
							c0.669-3.066,1.631-8.114,6.657-10.434c9.316-4.301,12.864-1.901,15.914-1.901s4.744-1.876,6.405-2.745
							c4.102-2.146,7.814,1.49,9.034,3.422c1.22,1.932,2.135,11.082-2.949,14.844c-5.084,3.762-14.743,8.134-23.69,6.71
							C348.952,247.006,346.946,246.591,345.462,246.137z"/>
						<path id="XMLID_1075_" style="fill:#FFE7C5;" d="M347.224,263.419c-0.29,0.039-0.586,0.059-0.886,0.059
							c-3.646,0-4.052-2.47-4.052-6.116c0-2.381-1.289-4.955,0.601-6.116L347.224,263.419z"/>
						<path id="XMLID_1074_" style="fill:#FFAE41;" d="M344.365,263.378"/>
					</g>
					<polygon id="XMLID_66_" style="fill:#FFE7C5;" points="380.066,268.051 387.498,256.444 386.601,225.647 391.4,224.755 
						394.866,256.745 388.921,275.323 					"/>
					<polygon id="XMLID_71_" style="fill:#FFE7C5;" points="335.794,269.258 328.361,257.651 329.258,226.855 324.46,225.962 
						320.993,257.952 326.938,276.53 					"/>
					<g id="XMLID_117_">
						<g id="XMLID_1111_">
							<path id="XMLID_1112_" style="fill:#5555C7;" d="M379.357,304.366l-36.408-4.588l-6.746,59.981l1.202,0.077
								c0.727-1.766,2.279-3.146,4.64-3.331c0.89-0.664,2.053-1.057,3.493-1.015c1.871,0.056,3.317-1.224,5.339-1.247
								c1.794-0.021,3.664,0.099,5.476,0.134c3.939,0.077,8.013,1.09,11.759,2.251c0.603,0.187,1.127,0.442,1.589,0.743
								c0.123-0.011,0.248-0.011,0.371-0.023c3.606-0.354,5.46,2.161,5.598,4.955l7.744,0.499L379.357,304.366z"/>
						</g>
					</g>
					<path id="XMLID_175_" style="fill:#5555C7;" d="M326.134,276.53l15.705,33.108l38.077,2.794l10.792-38.38l-11.334-9.048
						l-6.211,10.175c-1.89,3.096-5.256,4.985-8.884,4.985h-10.874c-2.342,0-4.616-0.79-6.454-2.242l-10.749-10.306L326.134,276.53z"
						/>
					<path id="XMLID_178_" style="fill:#3434A4;" d="M336.202,359.759c0,0,4.594-8.423,24.73-4.708
						c20.136,3.714,23.068,5.338,22.482,7.752c-0.586,2.414-9.826,2.945-9.826,2.945l0.453-6.17l0,0l0,0
						c-10.513-6.286-23.378-6.944-34.508-1.83l-1.204,0.553l-0.444,3.647C337.884,361.948,336.349,361.364,336.202,359.759z"/>
					<g id="XMLID_16_">
						<path id="XMLID_15_" style="fill:#00DDFE;" d="M396.878,216.386l-78.727,5.17c-1.99,0.131-3.724-1.39-3.855-3.38l-1.6-24.367
							c-0.131-1.989,1.39-3.724,3.38-3.855l78.728-5.17c1.989-0.131,3.724,1.39,3.855,3.38l1.6,24.367
							C400.388,214.52,398.867,216.255,396.878,216.386z"/>
						
							<rect id="XMLID_59_" x="321.846" y="193.8" transform="matrix(0.9979 -0.0655 0.0655 0.9979 -12.1252 23.7522)" style="fill:#FFFFFF;" width="68.415" height="5.865"/>
						
							<rect id="XMLID_58_" x="322.588" y="205.501" transform="matrix(0.9979 -0.0655 0.0655 0.9979 -12.9175 23.0001)" style="fill:#FFFFFF;" width="43.2" height="5.865"/>
					</g>
					<path id="XMLID_119_" style="fill:#FFE7C5;" d="M384.367,218.279c0,0-2.82-10.177-2.664-11.354
						c0.156-1.177,1.603-0.992,2.124,1.194c0.521,2.187,2.663,8.68,2.663,8.68s-2.163-10.851-1.669-11.475
						c0.494-0.624,1.591-0.445,1.731,1.068c0.141,1.512,1.987,8.69,1.987,8.69s-0.493-6.428-0.21-7.825
						c0.283-1.396,1.408,0.294,1.436,1.714c0.028,1.42,0.526,6.862,0.526,6.862s1.069-4.879,1.653-5.435
						c0.584-0.556,0.949,0.009,0.933,0.64c-0.016,0.631-1.316,6.187-1.316,6.187s-0.144,1.666-0.266,7.959
						c-0.068,3.51-3.998,2.205-4.328,1.747c-0.33-0.458-6.233-7.989-6.662-9.454l2.763-0.183
						C384.349,219.427,384.44,218.816,384.367,218.279z"/>
					<path id="XMLID_65_" style="fill:#FFE7C5;" d="M331.37,220.383c0,0,2.82-10.177,2.664-11.354
						c-0.156-1.177-1.603-0.993-2.124,1.194c-0.521,2.187-2.663,8.68-2.663,8.68s2.163-10.851,1.669-11.475
						c-0.494-0.624-1.591-0.445-1.731,1.068c-0.141,1.512-1.987,8.69-1.987,8.69s0.493-6.428,0.21-7.825
						c-0.283-1.396-1.408,0.294-1.436,1.714c-0.028,1.42-0.526,6.862-0.526,6.862s-1.069-4.879-1.653-5.435
						c-0.584-0.556-0.949,0.009-0.933,0.64c0.016,0.631,1.315,6.187,1.315,6.187s0.144,1.666,0.266,7.959
						c0.068,3.51,3.998,2.205,4.328,1.747c0.33-0.458,5.685-7.09,6.114-8.555l-3.125,0.184
						C331.53,221.034,331.296,220.921,331.37,220.383z"/>
				</g>
				<g id="XMLID_1022_">
					<g id="XMLID_1014_">
						<path id="XMLID_1077_" d="M295.074,107.174c1.05-0.658,2.548-0.822,3.773-0.572l-2.281-18.555l-10.396,0.384l0.668,7.466
							l5.829,3.214L295.074,107.174z"/>
						<polygon id="XMLID_1015_" style="fill:#FADD74;" points="286.685,94.195 282.441,94.909 281.855,89.751 286.263,89.481 						
							"/>
					</g>
					<polygon id="XMLID_908_" style="fill:#FFE7C5;" points="217.35,74.225 212.602,74.225 217.006,51.92 					"/>
					<g id="XMLID_18_">
						<path id="XMLID_13_" style="fill:#FADD74;" d="M173.075,209.383L98.62,193.654c-1.951-0.412-3.21-2.345-2.797-4.296
							l12.745-60.33c0.412-1.951,2.345-3.21,4.296-2.798l74.455,15.73c1.951,0.412,3.21,2.345,2.797,4.296l-12.745,60.33
							C176.959,208.536,175.026,209.795,173.075,209.383z"/>
						
							<rect id="XMLID_12_" x="112.105" y="143.252" transform="matrix(0.9784 0.2067 -0.2067 0.9784 33.3761 -27.086)" style="fill:#F9B233;" width="68.415" height="5.865"/>
						
							<rect id="XMLID_27_" x="109.843" y="153.963" transform="matrix(0.9784 0.2067 -0.2067 0.9784 35.5416 -26.3871)" style="fill:#FFFFFF;" width="68.415" height="5.865"/>
						
							<rect id="XMLID_31_" x="108.005" y="160.601" transform="matrix(0.9784 0.2067 -0.2067 0.9784 36.4484 -21.7903)" style="fill:#FFFFFF;" width="28.998" height="5.865"/>
						
							<rect id="XMLID_36_" x="105.317" y="175.386" transform="matrix(0.9784 0.2067 -0.2067 0.9784 39.8719 -24.989)" style="fill:#FFFFFF;" width="68.415" height="5.865"/>
						
							<rect id="XMLID_38_" x="103.054" y="186.097" transform="matrix(0.9784 0.2067 -0.2067 0.9784 42.037 -24.2899)" style="fill:#FFFFFF;" width="68.415" height="5.865"/>
					</g>
					
						<ellipse id="XMLID_902_" transform="matrix(0.8631 -0.505 0.505 0.8631 -15.0372 94.7223)" style="fill:#1D1D1B;" cx="167.232" cy="75.103" rx="26.145" ry="26.145"/>
					
						<ellipse id="XMLID_895_" transform="matrix(0.3182 -0.948 0.948 0.3182 25.8347 183.0413)" style="fill:#1D1D1B;" cx="140.181" cy="73.559" rx="26.145" ry="26.145"/>
					<g id="XMLID_1_">
						<path id="XMLID_85_" d="M225.942,71.6L216.147,91c-1.233,2.442-1.385,5.369-0.116,7.793c1.032,1.971,2.973,3.649,6.618,3.237
							c8.1-0.916,61.211-5.605,61.211-5.605l-1.602-8.749l-47.414-1.51c0,0,3.807-18.722-2.857-17.934
							C225.322,69.02,225.942,71.6,225.942,71.6z"/>
						<path id="XMLID_43_" style="fill:#1D1D1B;" d="M217.006,51.92c0,0,24.93-3.415,31.317,8.253
							c6.388,11.669,7.992,36.976,7.992,36.976l45.324,1.951l0.998,9.046l-53.133,5.638c-2.756,0.293-5.383-1.237-6.49-3.777
							l-11.964-34.909l-13.7-0.874L217.006,51.92z"/>
					</g>
					<polygon id="XMLID_46_" style="fill:#FFE7C5;" points="156.281,90.588 153.995,104.18 132.651,126.398 135.608,130.282 
						159.657,108.904 167.726,91.145 					"/>
					<g id="XMLID_1021_">
						<g id="XMLID_912_">
							<path id="XMLID_913_" style="fill:#FFE7C5;" d="M141.701,84.523l1.3-0.039c9.569-0.29,16.362-9.432,13.878-18.678l0,0
								l-11.987,0.921c0,0,1.309-1.848-0.113-3.664c-2.52-3.216-9.447-2.181-9.752-0.062c-0.22,1.528,3.099,3.799,3.099,3.799
								s2.63,5.396,1.164,9.623c-2.671,7.699-8.487,9.074-8.487,9.074L141.701,84.523z"/>
						</g>
						<polygon id="XMLID_355_" style="fill:#FFE7C5;" points="165.634,63.265 151.864,66.191 155.212,72.197 164.911,69.646 						
							"/>
					</g>
					<path id="XMLID_50_" style="fill:#FFE7C5;" d="M170.256,60.621l24.33-7.77c1.478-0.472,3.004,0.574,3.097,2.123l1.137,40.951
						h-4.838l-5.121-30.17l-14.819,7.142L170.256,60.621z"/>
					<path id="XMLID_82_" style="fill:#5555C7;" d="M217.006,51.92l-48.261,8.982c-5.387,1.002-9.568,5.273-10.457,10.68
						l-3.665,22.29h12.15l5.013-11.234c0,0,2.737,0,8.211,2.513c6.678,3.065,8.015-7.309,8.015-7.309l27.136,7.309L217.006,51.92z"
						/>
					<polygon id="XMLID_176_" style="fill:#3434A4;" points="166.452,61.56 182.298,56.776 183.411,58.173 					"/>
					<path id="XMLID_917_" style="fill:#FFE7C5;" d="M198.819,93.53l0.103,6.469c0.023,0.605-0.491,1.093-1.094,1.04l-13.665-0.031
						c0,0,0.227-0.957,2.756-1.22c2.562-0.266,7.301-1.611,7.301-1.611l-0.265-2.569"/>
					<path id="XMLID_64_" style="fill:#FFE7C5;" d="M191.745,100.997c0,0-2.713,0.169-2.786,1.269
						c-0.073,1.1,5.691-1.201,7.551-1.269c1.86-0.067,1.503-2.03,1.503-2.03L191.745,100.997z"/>
					<path id="XMLID_920_" style="fill:#FFE7C5;" d="M128.051,129.133c0,0-8.869,5.734-9.534,6.717
						c-0.666,0.983,0.539,1.807,2.381,0.518c1.842-1.288,7.757-4.719,7.757-4.719s-8.825,6.674-8.87,7.468
						c-0.045,0.794,0.894,1.389,2.003,0.352c1.11-1.037,7.257-5.175,7.257-5.175s-4.639,4.478-5.355,5.709
						c-0.716,1.231,1.247,0.716,2.212-0.327c0.964-1.043,4.952-4.779,4.952-4.779s-2.442,4.357-2.375,5.161
						c0.067,0.804,0.716,0.624,1.123,0.141c0.407-0.482,3.127-5.498,3.127-5.498s0.999-1.341,5.088-6.126
						c2.281-2.669-1.523-4.304-2.074-4.181c-0.551,0.123-10.526,1.873-12.628,4l3.104,0.656
						C128.594,128.307,128.463,128.78,128.051,129.133z"/>
					<g id="XMLID_994_">
						<path id="XMLID_946_" d="M306.11,99.351l0.668,7.466l5.829,3.214l3.652,12.234c0.304,1.636,1.78,2.789,3.441,2.688l0,0
							l-3.195-25.986L306.11,99.351z"/>
						<polygon id="XMLID_56_" style="fill:#FADD74;" points="306.625,105.115 302.381,105.828 301.795,100.671 306.204,100.401 
													"/>
					</g>
					<path id="XMLID_14_" style="fill:#FFFFFF;" d="M134.44,82.985"/>
					<path id="XMLID_859_" style="fill:#1D1D1B;" d="M142.257,78.33c0,0.54-0.697,0.978-1.556,0.978s-1.556-0.438-1.556-0.978
						c0-0.54,0.697-0.978,1.556-0.978S142.257,77.79,142.257,78.33z"/>
					<path id="XMLID_882_" style="fill:#1D1D1B;" d="M140.701,83.81c0,0.381-0.697,0.691-1.556,0.691
						c-0.859,0-1.556-0.309-1.556-0.691s0.697-0.691,1.556-0.691C140.004,83.12,140.701,83.429,140.701,83.81z"/>
					<path id="XMLID_880_" style="fill:#1D1D1B;" d="M152.399,79.689c0,0.589-0.546,1.066-1.221,1.066
						c-0.674,0-1.22-0.477-1.22-1.066c0-0.589,0.546-1.066,1.22-1.066C151.853,78.623,152.399,79.101,152.399,79.689z"/>
					<path id="XMLID_884_" style="fill:none;stroke:#1D1D1B;stroke-width:0.5;stroke-miterlimit:10;" d="M144.1,84.146
						c0,1.296-1.953,2.346-4.362,2.346c-2.409,0-4.362-1.05-4.362-2.346s1.953-2.346,4.362-2.346
						C142.147,81.8,144.1,82.851,144.1,84.146z"/>
					<polygon id="XMLID_872_" style="fill:#F95353;" points="137.171,81.421 147.337,84.146 148.608,78.868 					"/>
					<path id="XMLID_881_" style="fill:none;stroke:#1D1D1B;stroke-width:0.5;stroke-miterlimit:10;" d="M145.23,78.843
						c0,1.296-1.953,2.346-4.362,2.346c-2.409,0-4.362-1.05-4.362-2.346s1.953-2.346,4.362-2.346
						C143.277,76.497,145.23,77.548,145.23,78.843z"/>
					
						<line id="XMLID_1008_" style="fill:none;stroke:#1D1D1B;stroke-width:0.5;stroke-miterlimit:10;" x1="137.589" y1="67.187" x2="140.868" y2="76.497"/>
					<path id="XMLID_883_" style="fill:#1D1D1B;" d="M145.62,64.853c3.571,9.11,13.852,13.6,22.962,10.029
						c9.11-3.571,13.6-13.852,10.029-22.962"/>
				</g>
			</g>
		</g>
	</g>
</g>
<g id="DESIGNED_BY_FREEPIK">
	<g id="XMLID_11896_">
		<g id="XMLID_675_">
			<g id="XMLID_712_">
				<path id="XMLID_737_" style="fill:#FFFFFF;" d="M186.001,485.873v-0.147c-0.2,0.229-0.397,0.415-0.592,0.558
					c-0.194,0.144-0.405,0.253-0.633,0.327c-0.227,0.076-0.475,0.112-0.744,0.112c-0.357,0-0.686-0.075-0.99-0.226
					c-0.303-0.151-0.566-0.367-0.787-0.646c-0.222-0.28-0.39-0.608-0.504-0.987c-0.114-0.378-0.172-0.787-0.172-1.226
					c0-0.93,0.227-1.656,0.682-2.176c0.454-0.519,1.052-0.779,1.793-0.779c0.429,0,0.79,0.074,1.085,0.22
					c0.294,0.147,0.581,0.374,0.861,0.679v-2.197c0-0.305,0.061-0.536,0.183-0.692c0.121-0.156,0.295-0.234,0.52-0.234
					c0.225,0,0.398,0.072,0.52,0.215c0.122,0.144,0.183,0.355,0.183,0.635v6.563c0,0.284-0.065,0.496-0.196,0.638
					c-0.131,0.141-0.299,0.213-0.507,0.213c-0.203,0-0.372-0.073-0.505-0.22C186.068,486.355,186.001,486.146,186.001,485.873z
					 M183.074,483.687c0,0.404,0.063,0.747,0.188,1.03c0.126,0.284,0.297,0.497,0.515,0.64c0.218,0.144,0.456,0.216,0.714,0.216
					c0.262,0,0.501-0.068,0.717-0.205c0.216-0.136,0.389-0.345,0.518-0.626c0.129-0.282,0.193-0.634,0.193-1.055
					c0-0.396-0.064-0.737-0.193-1.023c-0.129-0.285-0.303-0.503-0.523-0.654c-0.22-0.15-0.461-0.225-0.722-0.225
					c-0.272,0-0.516,0.077-0.73,0.232c-0.214,0.154-0.381,0.375-0.499,0.665C183.133,482.97,183.074,483.306,183.074,483.687z"/>
				<path id="XMLID_734_" style="fill:#FFFFFF;" d="M192.564,484.064h-2.911c0.004,0.337,0.072,0.636,0.205,0.893
					c0.132,0.258,0.309,0.453,0.529,0.583c0.22,0.131,0.463,0.196,0.728,0.196c0.178,0,0.34-0.02,0.488-0.062
					c0.147-0.043,0.29-0.107,0.428-0.197c0.138-0.089,0.265-0.184,0.381-0.286c0.116-0.102,0.266-0.241,0.452-0.415
					c0.076-0.065,0.186-0.098,0.328-0.098c0.152,0,0.276,0.043,0.37,0.126c0.094,0.084,0.142,0.201,0.142,0.354
					c0,0.135-0.053,0.291-0.158,0.471c-0.106,0.18-0.265,0.353-0.477,0.518c-0.213,0.165-0.479,0.302-0.802,0.411
					c-0.321,0.109-0.691,0.164-1.109,0.164c-0.955,0-1.699-0.273-2.229-0.818c-0.531-0.545-0.796-1.285-0.796-2.218
					c0-0.44,0.065-0.848,0.196-1.224c0.131-0.377,0.322-0.699,0.572-0.968c0.251-0.269,0.56-0.475,0.927-0.619
					c0.367-0.143,0.774-0.215,1.221-0.215c0.581,0,1.08,0.122,1.496,0.368c0.417,0.245,0.729,0.562,0.935,0.951
					c0.207,0.389,0.311,0.786,0.311,1.188c0,0.375-0.107,0.617-0.321,0.729C193.255,484.008,192.953,484.064,192.564,484.064z
					 M189.653,483.219h2.699c-0.036-0.509-0.174-0.89-0.412-1.142c-0.238-0.253-0.551-0.379-0.94-0.379
					c-0.371,0-0.675,0.128-0.913,0.384C189.848,482.338,189.704,482.717,189.653,483.219z"/>
				<path id="XMLID_732_" style="fill:#FFFFFF;" d="M199.345,484.777c0,0.411-0.1,0.763-0.3,1.055
					c-0.2,0.292-0.495,0.514-0.886,0.665c-0.39,0.151-0.866,0.226-1.425,0.226c-0.534,0-0.992-0.082-1.374-0.246
					c-0.381-0.163-0.663-0.368-0.845-0.613c-0.182-0.246-0.273-0.492-0.273-0.739c0-0.164,0.058-0.303,0.175-0.419
					c0.116-0.116,0.263-0.174,0.442-0.174c0.156,0,0.275,0.038,0.359,0.114c0.084,0.076,0.164,0.184,0.24,0.321
					c0.153,0.266,0.336,0.463,0.548,0.595c0.213,0.131,0.502,0.196,0.87,0.196c0.298,0,0.542-0.067,0.733-0.199
					c0.19-0.133,0.286-0.285,0.286-0.456c0-0.262-0.099-0.452-0.297-0.572c-0.198-0.12-0.524-0.235-0.979-0.344
					c-0.512-0.127-0.929-0.261-1.251-0.401c-0.322-0.139-0.579-0.324-0.771-0.553c-0.193-0.229-0.289-0.511-0.289-0.845
					c0-0.298,0.089-0.579,0.267-0.845c0.178-0.265,0.441-0.476,0.788-0.634c0.346-0.159,0.765-0.238,1.256-0.238
					c0.385,0,0.732,0.04,1.038,0.121c0.308,0.079,0.564,0.187,0.769,0.322c0.205,0.134,0.361,0.283,0.469,0.446
					c0.107,0.164,0.161,0.323,0.161,0.48c0,0.17-0.057,0.311-0.171,0.42c-0.114,0.108-0.277,0.164-0.488,0.164
					c-0.153,0-0.282-0.044-0.39-0.132c-0.107-0.087-0.23-0.217-0.368-0.392c-0.113-0.145-0.245-0.262-0.398-0.349
					c-0.153-0.087-0.36-0.13-0.622-0.13c-0.269,0-0.492,0.057-0.67,0.172c-0.178,0.114-0.267,0.256-0.267,0.427
					c0,0.157,0.065,0.285,0.196,0.385c0.131,0.1,0.307,0.183,0.529,0.248c0.222,0.065,0.526,0.145,0.916,0.239
					c0.461,0.113,0.838,0.248,1.131,0.404c0.292,0.156,0.514,0.341,0.666,0.554C199.27,484.262,199.345,484.504,199.345,484.777z"/>
				<path id="XMLID_729_" style="fill:#FFFFFF;" d="M200.865,479.981c-0.207,0-0.384-0.064-0.531-0.191
					c-0.147-0.127-0.221-0.307-0.221-0.54c0-0.211,0.075-0.384,0.226-0.521c0.151-0.137,0.326-0.204,0.526-0.204
					c0.193,0,0.363,0.062,0.512,0.186c0.149,0.124,0.224,0.303,0.224,0.54c0,0.229-0.073,0.408-0.219,0.537
					C201.237,479.916,201.065,479.981,200.865,479.981z M201.601,481.518v4.301c0,0.298-0.071,0.524-0.213,0.677
					c-0.142,0.152-0.321,0.229-0.54,0.229c-0.218,0-0.395-0.078-0.532-0.234c-0.137-0.156-0.204-0.38-0.204-0.671v-4.258
					c0-0.294,0.068-0.516,0.204-0.665c0.136-0.149,0.313-0.224,0.532-0.224c0.218,0,0.398,0.075,0.54,0.224
					C201.53,481.045,201.601,481.253,201.601,481.518z"/>
				<path id="XMLID_726_" style="fill:#FFFFFF;" d="M208.12,481.763v4.323c0,0.494-0.053,0.92-0.159,1.276
					c-0.105,0.355-0.274,0.65-0.507,0.883c-0.233,0.232-0.537,0.405-0.913,0.517c-0.376,0.113-0.844,0.169-1.404,0.169
					c-0.512,0-0.97-0.072-1.374-0.215c-0.403-0.144-0.714-0.329-0.932-0.556c-0.218-0.227-0.327-0.461-0.327-0.701
					c0-0.182,0.062-0.33,0.186-0.444c0.123-0.115,0.273-0.172,0.447-0.172c0.218,0,0.409,0.096,0.573,0.289
					c0.08,0.098,0.162,0.198,0.248,0.298c0.085,0.1,0.18,0.186,0.284,0.257c0.104,0.07,0.228,0.123,0.373,0.158
					c0.146,0.034,0.313,0.051,0.502,0.051c0.385,0,0.684-0.053,0.897-0.161c0.213-0.107,0.362-0.257,0.447-0.45
					c0.085-0.192,0.135-0.398,0.15-0.618c0.015-0.22,0.025-0.573,0.033-1.061c-0.229,0.321-0.493,0.564-0.793,0.731
					c-0.3,0.167-0.657,0.251-1.071,0.251c-0.498,0-0.933-0.127-1.306-0.382c-0.372-0.254-0.659-0.61-0.858-1.068
					c-0.2-0.458-0.3-0.987-0.3-1.586c0-0.447,0.06-0.851,0.182-1.21c0.122-0.36,0.296-0.664,0.521-0.911
					c0.225-0.247,0.485-0.433,0.779-0.559c0.294-0.125,0.618-0.188,0.971-0.188c0.421,0,0.787,0.081,1.096,0.242
					c0.309,0.163,0.596,0.416,0.861,0.761v-0.202c0-0.258,0.063-0.457,0.191-0.6c0.128-0.141,0.291-0.212,0.491-0.212
					c0.287,0,0.478,0.094,0.572,0.281C208.073,481.141,208.12,481.411,208.12,481.763z M203.808,483.649
					c0,0.603,0.131,1.059,0.395,1.368c0.263,0.309,0.604,0.464,1.022,0.464c0.247,0,0.48-0.067,0.7-0.199
					c0.22-0.133,0.399-0.333,0.537-0.6c0.138-0.267,0.207-0.591,0.207-0.973c0-0.607-0.133-1.079-0.401-1.417
					c-0.267-0.338-0.619-0.507-1.055-0.507c-0.425,0-0.766,0.162-1.022,0.485C203.936,482.593,203.808,483.053,203.808,483.649z"/>
				<path id="XMLID_724_" style="fill:#FFFFFF;" d="M210.485,481.496v0.18c0.261-0.345,0.548-0.599,0.858-0.761
					c0.311-0.161,0.668-0.243,1.071-0.243c0.393,0,0.743,0.086,1.052,0.257c0.309,0.171,0.54,0.413,0.692,0.724
					c0.099,0.182,0.162,0.379,0.191,0.589c0.029,0.211,0.044,0.48,0.044,0.807v2.769c0,0.298-0.068,0.524-0.205,0.677
					c-0.136,0.152-0.313,0.229-0.531,0.229c-0.222,0-0.402-0.078-0.54-0.234c-0.138-0.156-0.207-0.38-0.207-0.671v-2.48
					c0-0.49-0.069-0.866-0.205-1.126c-0.137-0.259-0.408-0.39-0.815-0.39c-0.265,0-0.507,0.079-0.725,0.237
					c-0.218,0.159-0.378,0.376-0.48,0.652c-0.073,0.222-0.109,0.636-0.109,1.243v1.864c0,0.302-0.07,0.529-0.21,0.679
					c-0.14,0.151-0.321,0.226-0.542,0.226c-0.215,0-0.391-0.078-0.529-0.234c-0.138-0.156-0.207-0.38-0.207-0.671v-4.301
					c0-0.284,0.062-0.496,0.185-0.636c0.124-0.14,0.293-0.21,0.507-0.21c0.131,0,0.249,0.031,0.355,0.093
					c0.105,0.062,0.19,0.155,0.253,0.277C210.454,481.167,210.485,481.318,210.485,481.496z"/>
				<path id="XMLID_721_" style="fill:#FFFFFF;" d="M219.539,484.064h-2.911c0.004,0.337,0.072,0.636,0.205,0.893
					c0.133,0.258,0.309,0.453,0.529,0.583c0.219,0.131,0.462,0.196,0.727,0.196c0.178,0,0.341-0.02,0.488-0.062
					c0.146-0.043,0.289-0.107,0.428-0.197c0.138-0.089,0.265-0.184,0.382-0.286c0.116-0.102,0.266-0.241,0.452-0.415
					c0.076-0.065,0.185-0.098,0.327-0.098c0.153,0,0.276,0.043,0.371,0.126c0.094,0.084,0.142,0.201,0.142,0.354
					c0,0.135-0.052,0.291-0.158,0.471c-0.106,0.18-0.265,0.353-0.477,0.518c-0.213,0.165-0.479,0.302-0.801,0.411
					c-0.322,0.109-0.692,0.164-1.109,0.164c-0.956,0-1.699-0.273-2.23-0.818c-0.53-0.545-0.796-1.285-0.796-2.218
					c0-0.44,0.065-0.848,0.196-1.224c0.131-0.377,0.322-0.699,0.573-0.968c0.251-0.269,0.56-0.475,0.926-0.619
					c0.367-0.143,0.774-0.215,1.221-0.215c0.581,0,1.079,0.122,1.496,0.368c0.417,0.245,0.728,0.562,0.936,0.951
					c0.207,0.389,0.311,0.786,0.311,1.188c0,0.375-0.107,0.617-0.322,0.729C220.23,484.008,219.928,484.064,219.539,484.064z
					 M216.628,483.219h2.698c-0.036-0.509-0.174-0.89-0.411-1.142c-0.238-0.253-0.551-0.379-0.94-0.379
					c-0.371,0-0.676,0.128-0.914,0.384C216.823,482.338,216.679,482.717,216.628,483.219z"/>
				<path id="XMLID_718_" style="fill:#FFFFFF;" d="M225.605,485.873v-0.147c-0.2,0.229-0.397,0.415-0.591,0.558
					c-0.195,0.144-0.405,0.253-0.632,0.327c-0.227,0.076-0.475,0.112-0.744,0.112c-0.357,0-0.686-0.075-0.99-0.226
					c-0.303-0.151-0.566-0.367-0.788-0.646c-0.222-0.28-0.39-0.608-0.504-0.987c-0.115-0.378-0.172-0.787-0.172-1.226
					c0-0.93,0.227-1.656,0.681-2.176c0.454-0.519,1.052-0.779,1.794-0.779c0.429,0,0.791,0.074,1.085,0.22
					c0.294,0.147,0.582,0.374,0.861,0.679v-2.197c0-0.305,0.061-0.536,0.183-0.692c0.121-0.156,0.295-0.234,0.521-0.234
					c0.225,0,0.398,0.072,0.52,0.215c0.122,0.144,0.183,0.355,0.183,0.635v6.563c0,0.284-0.065,0.496-0.196,0.638
					c-0.131,0.141-0.3,0.213-0.507,0.213c-0.204,0-0.372-0.073-0.504-0.22C225.672,486.355,225.605,486.146,225.605,485.873z
					 M222.678,483.687c0,0.404,0.062,0.747,0.188,1.03c0.125,0.284,0.297,0.497,0.516,0.64c0.218,0.144,0.456,0.216,0.713,0.216
					c0.262,0,0.501-0.068,0.717-0.205c0.216-0.136,0.389-0.345,0.518-0.626c0.129-0.282,0.194-0.634,0.194-1.055
					c0-0.396-0.064-0.737-0.194-1.023c-0.129-0.285-0.303-0.503-0.523-0.654c-0.22-0.15-0.461-0.225-0.722-0.225
					c-0.272,0-0.516,0.077-0.73,0.232c-0.214,0.154-0.38,0.375-0.499,0.665C222.737,482.97,222.678,483.306,222.678,483.687z"/>
				<path id="XMLID_715_" style="fill:#FFFFFF;" d="M231.688,479.31v2.273c0.28-0.29,0.565-0.513,0.856-0.668
					c0.291-0.154,0.651-0.231,1.079-0.231c0.494,0,0.927,0.117,1.3,0.351c0.372,0.236,0.661,0.575,0.867,1.02
					c0.205,0.445,0.308,0.973,0.308,1.584c0,0.451-0.057,0.863-0.172,1.24c-0.115,0.376-0.281,0.702-0.499,0.978
					c-0.218,0.276-0.482,0.49-0.793,0.641c-0.311,0.151-0.654,0.226-1.028,0.226c-0.229,0-0.445-0.027-0.646-0.082
					c-0.202-0.054-0.374-0.125-0.515-0.215c-0.141-0.089-0.262-0.18-0.362-0.275c-0.1-0.094-0.232-0.237-0.395-0.425v0.147
					c0,0.28-0.067,0.491-0.202,0.636c-0.134,0.144-0.305,0.215-0.512,0.215c-0.211,0-0.379-0.071-0.504-0.215
					c-0.126-0.144-0.188-0.356-0.188-0.636v-6.498c0-0.302,0.061-0.53,0.182-0.684c0.122-0.154,0.292-0.231,0.51-0.231
					c0.229,0,0.405,0.073,0.529,0.22C231.626,478.828,231.688,479.037,231.688,479.31z M231.759,483.731
					c0,0.592,0.135,1.047,0.406,1.365c0.271,0.318,0.626,0.478,1.066,0.478c0.374,0,0.697-0.163,0.967-0.488
					c0.271-0.326,0.406-0.791,0.406-1.398c0-0.392-0.056-0.731-0.169-1.014c-0.113-0.284-0.272-0.503-0.479-0.657
					c-0.207-0.154-0.449-0.232-0.725-0.232c-0.283,0-0.536,0.077-0.758,0.232c-0.222,0.154-0.396,0.378-0.523,0.67
					C231.823,482.979,231.759,483.328,231.759,483.731z"/>
				<path id="XMLID_713_" style="fill:#FFFFFF;" d="M238.028,486.909l0.136-0.333l-1.832-4.612
					c-0.112-0.265-0.169-0.458-0.169-0.578c0-0.127,0.033-0.245,0.098-0.354c0.066-0.109,0.155-0.197,0.27-0.262
					c0.115-0.066,0.234-0.099,0.357-0.099c0.214,0,0.376,0.068,0.485,0.205c0.109,0.136,0.205,0.331,0.289,0.586l1.259,3.663
					l1.194-3.407c0.094-0.275,0.18-0.492,0.256-0.648c0.076-0.156,0.157-0.262,0.242-0.316c0.085-0.055,0.206-0.082,0.363-0.082
					c0.113,0,0.221,0.03,0.325,0.09c0.103,0.06,0.183,0.141,0.24,0.243c0.056,0.101,0.085,0.208,0.085,0.321
					c-0.015,0.069-0.038,0.167-0.071,0.295c-0.033,0.127-0.072,0.257-0.12,0.387l-1.941,5.081c-0.168,0.447-0.331,0.797-0.491,1.052
					c-0.16,0.254-0.371,0.451-0.635,0.586c-0.264,0.137-0.619,0.205-1.066,0.205c-0.436,0-0.763-0.047-0.981-0.141
					c-0.219-0.095-0.327-0.268-0.327-0.518c0-0.17,0.051-0.303,0.156-0.395c0.103-0.092,0.257-0.14,0.46-0.14
					c0.08,0,0.159,0.011,0.235,0.034c0.094,0.021,0.176,0.033,0.245,0.033c0.171,0,0.305-0.025,0.404-0.077
					c0.098-0.051,0.186-0.138,0.264-0.265C237.836,487.337,237.926,487.152,238.028,486.909z"/>
			</g>
			<g id="XMLID_690_">
				<path id="XMLID_711_" style="fill:#FFFFFF;" d="M259.586,480.801h0.355v-0.447c0-0.467,0.057-0.836,0.176-1.112
					c0.117-0.275,0.319-0.474,0.601-0.6c0.281-0.124,0.668-0.187,1.157-0.187c0.872,0,1.304,0.211,1.304,0.64
					c0,0.137-0.045,0.255-0.138,0.353c-0.089,0.097-0.197,0.147-0.32,0.147c-0.057,0-0.16-0.011-0.303-0.034
					c-0.136-0.019-0.259-0.032-0.358-0.032c-0.268,0-0.44,0.081-0.52,0.238c-0.073,0.158-0.112,0.384-0.112,0.68v0.354h0.363
					c0.569,0,0.85,0.17,0.85,0.514c0,0.24-0.073,0.396-0.225,0.462c-0.15,0.066-0.358,0.098-0.625,0.098h-0.363v3.944
					c0,0.293-0.069,0.517-0.212,0.67c-0.138,0.156-0.318,0.233-0.541,0.233c-0.211,0-0.385-0.077-0.527-0.233
					c-0.14-0.154-0.209-0.377-0.209-0.67v-3.944h-0.41c-0.223,0-0.392-0.048-0.513-0.15c-0.12-0.098-0.181-0.229-0.181-0.389
					C258.838,480.978,259.088,480.801,259.586,480.801"/>
				<path id="XMLID_710_" style="fill:#FFFFFF;" d="M264.459,484.575v1.244c0,0.301-0.076,0.528-0.215,0.677
					c-0.142,0.152-0.321,0.227-0.538,0.227c-0.219,0-0.395-0.075-0.532-0.23c-0.136-0.151-0.207-0.377-0.207-0.674v-4.145
					c0-0.669,0.241-1.004,0.723-1.004c0.249,0,0.427,0.077,0.536,0.234c0.109,0.157,0.169,0.387,0.182,0.693
					c0.177-0.307,0.358-0.536,0.544-0.693c0.191-0.157,0.438-0.234,0.752-0.234c0.315,0,0.615,0.077,0.91,0.234
					c0.296,0.157,0.443,0.365,0.443,0.623c0,0.18-0.063,0.333-0.187,0.448c-0.126,0.12-0.261,0.179-0.405,0.179
					c-0.057,0-0.19-0.036-0.397-0.103c-0.21-0.065-0.395-0.099-0.553-0.099c-0.218,0-0.397,0.059-0.535,0.171
					c-0.139,0.118-0.247,0.285-0.324,0.509c-0.074,0.227-0.126,0.497-0.156,0.806C264.472,483.748,264.459,484.128,264.459,484.575"
					/>
				<path id="XMLID_707_" style="fill:#FFFFFF;" d="M271.301,484.062h-2.912c0.005,0.337,0.071,0.637,0.203,0.895
					c0.135,0.256,0.31,0.451,0.531,0.584c0.221,0.131,0.461,0.195,0.728,0.195c0.178,0,0.34-0.019,0.488-0.064
					c0.146-0.04,0.29-0.106,0.428-0.196c0.139-0.087,0.264-0.183,0.381-0.287c0.116-0.1,0.268-0.239,0.453-0.413
					c0.077-0.065,0.186-0.1,0.326-0.1c0.154,0,0.276,0.043,0.373,0.127c0.095,0.085,0.14,0.201,0.14,0.354
					c0,0.135-0.051,0.292-0.154,0.47c-0.108,0.182-0.266,0.354-0.48,0.52c-0.215,0.164-0.482,0.303-0.802,0.41
					c-0.321,0.109-0.692,0.164-1.109,0.164c-0.959,0-1.701-0.271-2.231-0.816c-0.53-0.547-0.799-1.287-0.799-2.22
					c0-0.44,0.067-0.849,0.199-1.225c0.129-0.378,0.32-0.698,0.573-0.969c0.25-0.27,0.557-0.475,0.925-0.619
					c0.366-0.143,0.773-0.215,1.221-0.215c0.58,0,1.079,0.123,1.496,0.371c0.415,0.243,0.731,0.56,0.935,0.949
					c0.208,0.391,0.311,0.785,0.311,1.19c0,0.372-0.108,0.614-0.322,0.726C271.991,484.007,271.69,484.062,271.301,484.062
					 M268.388,483.216h2.698c-0.036-0.508-0.171-0.889-0.41-1.14c-0.24-0.254-0.55-0.379-0.942-0.379
					c-0.37,0-0.675,0.126-0.914,0.384C268.584,482.337,268.438,482.715,268.388,483.216"/>
				<path id="XMLID_704_" style="fill:#FFFFFF;" d="M277.492,484.062h-2.912c0.003,0.337,0.072,0.637,0.204,0.895
					c0.133,0.256,0.309,0.451,0.529,0.584c0.22,0.131,0.462,0.195,0.73,0.195c0.177,0,0.34-0.019,0.485-0.064
					c0.148-0.04,0.29-0.106,0.43-0.196c0.139-0.087,0.264-0.183,0.381-0.287c0.114-0.1,0.266-0.239,0.452-0.413
					c0.077-0.065,0.187-0.1,0.326-0.1c0.154,0,0.277,0.043,0.373,0.127c0.095,0.085,0.138,0.201,0.138,0.354
					c0,0.135-0.05,0.292-0.157,0.47c-0.102,0.182-0.261,0.354-0.476,0.52c-0.212,0.164-0.482,0.303-0.801,0.41
					c-0.32,0.109-0.693,0.164-1.11,0.164c-0.957,0-1.698-0.271-2.231-0.816c-0.53-0.547-0.797-1.287-0.797-2.22
					c0-0.44,0.067-0.849,0.199-1.225c0.13-0.378,0.321-0.698,0.572-0.969c0.25-0.27,0.558-0.475,0.927-0.619
					c0.366-0.143,0.775-0.215,1.222-0.215c0.579,0,1.078,0.123,1.5,0.371c0.413,0.243,0.726,0.56,0.93,0.949
					c0.206,0.391,0.313,0.785,0.313,1.19c0,0.372-0.11,0.614-0.322,0.726C278.181,484.007,277.88,484.062,277.492,484.062
					 M274.58,483.216h2.698c-0.036-0.508-0.174-0.889-0.41-1.14c-0.242-0.254-0.552-0.379-0.943-0.379
					c-0.37,0-0.675,0.126-0.914,0.384C274.774,482.337,274.628,482.715,274.58,483.216"/>
				<path id="XMLID_701_" style="fill:#FFFFFF;" d="M280.752,481.507v0.178c0.279-0.345,0.571-0.598,0.875-0.76
					c0.298-0.163,0.642-0.245,1.023-0.245c0.456,0,0.881,0.119,1.267,0.354c0.385,0.238,0.688,0.583,0.912,1.037
					c0.224,0.456,0.336,0.993,0.336,1.615c0,0.457-0.064,0.879-0.193,1.263c-0.128,0.383-0.308,0.704-0.533,0.964
					c-0.226,0.258-0.491,0.46-0.798,0.6c-0.311,0.138-0.638,0.209-0.992,0.209c-0.424,0-0.783-0.085-1.07-0.257
					c-0.289-0.168-0.564-0.421-0.827-0.749v2.234c0,0.652-0.239,0.981-0.714,0.981c-0.281,0-0.464-0.084-0.558-0.252
					c-0.087-0.172-0.134-0.415-0.134-0.741v-6.424c0-0.284,0.061-0.493,0.184-0.636c0.123-0.137,0.294-0.209,0.508-0.209
					c0.212,0,0.382,0.072,0.514,0.215C280.687,481.03,280.752,481.235,280.752,481.507 M283.669,483.669
					c0-0.393-0.061-0.731-0.18-1.012c-0.12-0.283-0.286-0.498-0.497-0.647c-0.211-0.151-0.449-0.228-0.707-0.228
					c-0.41,0-0.757,0.163-1.038,0.484c-0.283,0.325-0.424,0.801-0.424,1.431c0,0.589,0.14,1.052,0.422,1.381
					c0.28,0.329,0.623,0.493,1.04,0.493c0.246,0,0.477-0.072,0.687-0.214c0.213-0.145,0.382-0.36,0.507-0.647
					C283.606,484.423,283.669,484.076,283.669,483.669"/>
				<path id="XMLID_698_" style="fill:#FFFFFF;" d="M286.663,479.977c-0.208,0-0.384-0.066-0.53-0.192
					c-0.149-0.128-0.223-0.306-0.223-0.538c0-0.211,0.075-0.384,0.228-0.522c0.15-0.135,0.325-0.204,0.525-0.204
					c0.195,0,0.365,0.061,0.513,0.183c0.149,0.125,0.224,0.306,0.224,0.543c0,0.229-0.073,0.408-0.217,0.537
					C287.037,479.911,286.865,479.977,286.663,479.977 M287.4,481.514v4.306c0,0.296-0.071,0.521-0.212,0.673
					c-0.143,0.155-0.322,0.23-0.54,0.23c-0.219,0-0.393-0.077-0.533-0.233c-0.134-0.159-0.204-0.382-0.204-0.669v-4.263
					c0-0.293,0.07-0.513,0.204-0.662c0.14-0.152,0.314-0.225,0.533-0.225c0.219,0,0.397,0.073,0.54,0.225
					C287.329,481.043,287.4,481.251,287.4,481.514"/>
				<path id="XMLID_697_" style="fill:#FFFFFF;" d="M292.198,486.043l-1.311-2.161l-0.808,0.762v1.185
					c0,0.286-0.076,0.506-0.228,0.66c-0.147,0.156-0.325,0.233-0.52,0.233c-0.229,0-0.41-0.075-0.54-0.23
					c-0.13-0.151-0.197-0.377-0.197-0.674v-6.35c0-0.329,0.065-0.58,0.19-0.754c0.128-0.175,0.313-0.26,0.547-0.26
					c0.229,0,0.409,0.079,0.545,0.236c0.134,0.155,0.203,0.387,0.203,0.69v3.612l1.674-1.758c0.208-0.216,0.363-0.368,0.475-0.447
					c0.109-0.08,0.241-0.119,0.396-0.119c0.187,0,0.341,0.059,0.468,0.177c0.121,0.118,0.184,0.267,0.184,0.444
					c0,0.217-0.203,0.51-0.605,0.873l-0.79,0.725l1.526,2.401c0.111,0.18,0.194,0.312,0.243,0.405
					c0.048,0.091,0.074,0.183,0.074,0.265c0,0.237-0.066,0.422-0.195,0.56c-0.129,0.136-0.301,0.203-0.508,0.203
					c-0.182,0-0.324-0.047-0.421-0.147C292.5,486.476,292.364,486.298,292.198,486.043"/>
				<path id="XMLID_696_" style="fill:#FFFFFF;" d="M295.432,486.722c-0.225,0-0.418-0.072-0.582-0.219
					c-0.163-0.143-0.246-0.348-0.246-0.611c0-0.221,0.079-0.413,0.235-0.571c0.158-0.16,0.349-0.24,0.578-0.24
					c0.228,0,0.422,0.08,0.587,0.237c0.16,0.158,0.242,0.351,0.242,0.575c0,0.26-0.082,0.464-0.242,0.608
					C295.84,486.65,295.65,486.722,295.432,486.722"/>
				<path id="XMLID_695_" style="fill:#FFFFFF;" d="M302.835,484.88c0,0.184-0.055,0.383-0.167,0.594
					c-0.11,0.212-0.28,0.412-0.508,0.603c-0.227,0.191-0.512,0.346-0.858,0.461c-0.345,0.116-0.735,0.176-1.165,0.176
					c-0.922,0-1.641-0.27-2.157-0.804c-0.514-0.537-0.772-1.257-0.772-2.158c0-0.613,0.117-1.151,0.355-1.621
					c0.234-0.467,0.576-0.831,1.022-1.087c0.447-0.257,0.985-0.384,1.603-0.384c0.387,0,0.739,0.056,1.063,0.169
					c0.322,0.112,0.592,0.259,0.818,0.435c0.222,0.181,0.393,0.369,0.511,0.569c0.119,0.202,0.177,0.391,0.177,0.567
					c0,0.176-0.065,0.328-0.197,0.452c-0.135,0.123-0.296,0.186-0.481,0.186c-0.126,0-0.228-0.033-0.311-0.095
					c-0.082-0.064-0.175-0.166-0.275-0.311c-0.182-0.275-0.371-0.483-0.572-0.619c-0.197-0.139-0.448-0.208-0.754-0.208
					c-0.437,0-0.794,0.171-1.064,0.515c-0.268,0.342-0.404,0.815-0.404,1.408c0,0.28,0.036,0.539,0.105,0.773
					c0.067,0.234,0.167,0.434,0.299,0.599c0.132,0.165,0.289,0.29,0.474,0.375c0.186,0.088,0.391,0.129,0.61,0.129
					c0.299,0,0.555-0.069,0.767-0.207c0.216-0.138,0.403-0.349,0.566-0.633c0.091-0.167,0.188-0.297,0.292-0.392
					c0.105-0.094,0.235-0.143,0.388-0.143c0.182,0,0.333,0.071,0.451,0.208C302.774,484.576,302.835,484.725,302.835,484.88"/>
				<path id="XMLID_692_" style="fill:#FFFFFF;" d="M309.258,483.697c0,0.442-0.07,0.852-0.204,1.228
					c-0.142,0.374-0.34,0.696-0.603,0.963c-0.261,0.269-0.575,0.475-0.936,0.62c-0.367,0.142-0.775,0.215-1.228,0.215
					c-0.451,0-0.857-0.073-1.217-0.22c-0.358-0.143-0.672-0.353-0.933-0.621c-0.265-0.274-0.464-0.594-0.604-0.962
					c-0.132-0.369-0.201-0.777-0.201-1.223c0-0.451,0.071-0.864,0.206-1.239c0.139-0.376,0.338-0.696,0.596-0.96
					c0.259-0.265,0.57-0.469,0.936-0.614c0.369-0.143,0.775-0.215,1.217-0.215c0.45,0,0.86,0.072,1.228,0.219
					c0.366,0.144,0.679,0.353,0.943,0.619c0.263,0.272,0.461,0.591,0.597,0.96C309.189,482.841,309.258,483.248,309.258,483.697
					 M307.764,483.697c0-0.607-0.135-1.079-0.401-1.417c-0.266-0.342-0.625-0.509-1.076-0.509c-0.292,0-0.548,0.076-0.771,0.226
					c-0.222,0.15-0.391,0.373-0.511,0.668c-0.12,0.295-0.181,0.639-0.181,1.032c0,0.39,0.059,0.728,0.178,1.018
					c0.119,0.293,0.288,0.515,0.508,0.669c0.221,0.153,0.479,0.232,0.776,0.232c0.45,0,0.81-0.17,1.076-0.512
					C307.629,484.766,307.764,484.295,307.764,483.697"/>
				<path id="XMLID_691_" style="fill:#FFFFFF;" d="M314.935,483.807v1.978c0,0.314-0.069,0.546-0.212,0.704
					c-0.144,0.156-0.328,0.234-0.561,0.234c-0.225,0-0.41-0.078-0.546-0.234c-0.142-0.159-0.214-0.391-0.214-0.704v-2.371
					c0-0.375-0.012-0.667-0.036-0.875c-0.026-0.203-0.096-0.376-0.208-0.507c-0.113-0.135-0.292-0.202-0.534-0.202
					c-0.488,0-0.808,0.166-0.962,0.506c-0.154,0.331-0.233,0.811-0.233,1.439v2.01c0,0.309-0.07,0.543-0.207,0.702
					c-0.143,0.157-0.326,0.237-0.554,0.237c-0.227,0-0.411-0.08-0.555-0.237c-0.145-0.159-0.216-0.393-0.216-0.702v-4.258
					c0-0.281,0.064-0.494,0.192-0.638c0.132-0.147,0.302-0.219,0.511-0.219c0.204,0,0.374,0.071,0.512,0.204
					c0.136,0.137,0.203,0.325,0.203,0.565v0.141c0.26-0.307,0.536-0.535,0.829-0.678c0.297-0.149,0.621-0.221,0.983-0.221
					c0.374,0,0.695,0.075,0.963,0.224c0.27,0.15,0.49,0.376,0.666,0.675c0.252-0.303,0.522-0.53,0.809-0.678
					c0.287-0.147,0.604-0.221,0.954-0.221c0.405,0,0.758,0.082,1.053,0.241c0.293,0.16,0.512,0.39,0.659,0.686
					c0.127,0.271,0.189,0.694,0.189,1.272v2.906c0,0.314-0.07,0.546-0.211,0.704c-0.141,0.156-0.33,0.234-0.562,0.234
					c-0.227,0-0.41-0.08-0.554-0.237c-0.143-0.159-0.216-0.393-0.216-0.702v-2.503c0-0.321-0.014-0.576-0.04-0.768
					c-0.027-0.193-0.101-0.356-0.22-0.486c-0.122-0.131-0.304-0.197-0.547-0.197c-0.196,0-0.382,0.061-0.559,0.177
					c-0.176,0.114-0.314,0.273-0.414,0.466C314.992,482.725,314.935,483.169,314.935,483.807"/>
			</g>
			<g id="XMLID_676_">
				<path id="XMLID_689_" style="fill:#FFFFFF;" d="M245.658,483.337c-0.001-0.003-0.001-0.006-0.001-0.01
					C245.657,483.331,245.657,483.334,245.658,483.337z"/>
				<path id="XMLID_688_" style="fill:#FFFFFF;" d="M245.733,483.813c0.001,0,0.001,0,0.002,0c-0.029-0.136-0.051-0.27-0.068-0.403
					C245.684,483.544,245.706,483.679,245.733,483.813z"/>
				<path id="XMLID_687_" style="fill:#FFFFFF;" d="M246.226,485.194c-0.003-0.006-0.006-0.012-0.01-0.019
					C246.22,485.182,246.223,485.188,246.226,485.194z"/>
				<path id="XMLID_686_" style="fill:#FFFFFF;" d="M246.179,485.102c-0.013-0.025-0.025-0.052-0.037-0.077
					C246.154,485.052,246.166,485.077,246.179,485.102z"/>
				<path id="XMLID_685_" style="fill:#FFFFFF;" d="M245.872,484.345c0.073,0.23,0.161,0.452,0.262,0.665
					c-0.103-0.217-0.189-0.44-0.26-0.665C245.873,484.345,245.872,484.345,245.872,484.345z"/>
				<path id="XMLID_684_" style="fill:#FFFFFF;" d="M251.419,477.634c0.288,0,0.5,0.023,0.743,0.064l0.069-0.438
					c0,0-0.672-0.207-1.556-0.134l-0.07-0.238c0.275-0.058,0.481-0.302,0.481-0.594c0-0.334-0.272-0.605-0.607-0.605
					c-0.335,0-0.606,0.271-0.606,0.605c0,0.291,0.206,0.536,0.48,0.594l0.077,0.266c-0.938,0.129-1.685,0.495-1.685,0.495
					l0.132,0.405c0.568-0.189,1.06-0.304,1.506-0.352C250.822,477.654,251.151,477.634,251.419,477.634z"/>
				<path id="XMLID_683_" style="fill:#FFFFFF;" d="M246.215,479.849l0.003-0.004c0.022-0.029,0.043-0.055,0.065-0.082l-0.18-0.13
					l-0.28-0.204c-0.016,0.022-0.456,0.427-0.804,1.175c-0.015-0.023-0.032-0.046-0.051-0.068c-0.104-0.114-0.25-0.172-0.435-0.169
					c-0.002,0-0.005,0-0.008,0c-0.115,0-0.193-0.038-0.245-0.085c0.051-0.065,0.082-0.147,0.082-0.237
					c0-0.211-0.172-0.384-0.384-0.384c-0.212,0-0.384,0.173-0.384,0.384c0,0.212,0.172,0.384,0.384,0.384
					c0.033,0,0.065-0.005,0.096-0.012c0.094,0.105,0.244,0.196,0.464,0.192c0.113-0.001,0.196,0.028,0.251,0.089
					c0.064,0.07,0.085,0.17,0.092,0.246c-0.001,0.001-0.001,0.003-0.002,0.003c-0.25,0.683-0.178,1.532-0.178,1.532l0.607,0.024
					c0.012-0.309,0.057-0.851,0.213-1.28C245.821,480.391,246.199,479.87,246.215,479.849z"/>
				<path id="XMLID_682_" style="fill:#FFFFFF;" d="M256.699,478.141c-0.211,0-0.384,0.172-0.384,0.384
					c0,0.033,0.005,0.064,0.014,0.095c-0.105,0.095-0.197,0.245-0.193,0.465c0.002,0.113-0.027,0.195-0.089,0.251
					c-0.049,0.043-0.11,0.066-0.17,0.081c-0.452-0.633-1.008-1.019-1.008-1.019l-0.436,0.467c0.329,0.299,0.665,0.674,0.992,1.142
					c0.226,0.323,0.459,0.74,0.652,1.156l0.588-0.279c0,0-0.268-0.663-0.646-1.258c0.066-0.023,0.132-0.059,0.19-0.11
					c0.115-0.104,0.171-0.25,0.168-0.435c-0.001-0.119,0.038-0.2,0.085-0.253c0.065,0.05,0.147,0.082,0.236,0.082
					c0.213,0,0.385-0.172,0.385-0.384C257.083,478.313,256.912,478.141,256.699,478.141z"/>
				<path id="XMLID_681_" style="fill:#FFFFFF;" d="M255.174,483.423c-0.809,0.394-2.14,0.915-3.892,1.159
					c-0.688,0.095-1.354,0.13-1.968,0.13c-0.798,0-1.503-0.059-2.045-0.128c-0.618-0.078-1.1-0.173-1.396-0.24
					c0.071,0.225,0.157,0.448,0.26,0.665c0.002,0.006,0.004,0.012,0.007,0.016c0.012,0.025,0.025,0.052,0.037,0.077
					c0.012,0.025,0.025,0.05,0.037,0.073c0.004,0.007,0.007,0.013,0.01,0.019c0.174,0.327,0.383,0.628,0.62,0.889
					c0.826,0.904,1.668,1.047,1.676,1.048l0.013,0.002l0.012,0.004c0.008,0.003,0.754,0.244,1.889,0.244
					c1.117,0,2.212-0.225,3.257-0.67c0.773-0.396,1.505-0.996,1.868-1.532c0.28-0.415,0.483-0.857,0.603-1.317
					c0.064-0.244,0.114-0.636,0.085-1.048C256.021,482.968,255.661,483.186,255.174,483.423z"/>
				<path id="XMLID_677_" style="fill:#FFFFFF;" d="M246.474,480.04c-0.024,0.034-0.374,0.531-0.652,1.293
					c-0.208,0.571-0.198,1.402-0.198,1.412v0.002c0,0.195,0.011,0.389,0.033,0.58c0,0.004,0,0.007,0.001,0.01
					c0.002,0.025,0.006,0.048,0.009,0.073c0.017,0.133,0.04,0.267,0.068,0.403c0.402,0.102,2.8,0.661,5.48,0.288
					c1.68-0.234,2.955-0.73,3.73-1.106c0.643-0.312,1.057-0.595,1.217-0.711c-0.159-0.59-0.598-1.516-1-2.093
					c-1.151-1.645-2.392-2.066-3.029-2.171c-0.243-0.04-0.438-0.063-0.714-0.063c-0.257,0-0.575,0.021-1.001,0.066
					c-0.426,0.044-0.902,0.156-1.453,0.342c-0.773,0.259-1.473,0.665-2.024,1.175l-0.019,0.017
					C246.841,479.633,246.67,479.791,246.474,480.04z M253.516,479.657c0.551,0,1,0.448,1,1s-0.449,1.001-1,1.001
					c-0.552,0-1-0.449-1-1.001S252.964,479.657,253.516,479.657z M248.786,479.618c0.893,0,1.617,0.724,1.617,1.617
					c0,0.893-0.723,1.615-1.617,1.615c-0.892,0-1.616-0.723-1.616-1.615C247.17,480.342,247.894,479.618,248.786,479.618z"/>
			</g>
		</g>
	</g>
</g>
</svg>
